<?xml version="1.0" encoding="utf-8"?>
<!-- Generator: Adobe Illustrator 15.0.2, SVG Export Plug-In . SVG Version: 6.00 Build 0)  -->
<!DOCTYPE svg PUBLIC "-//W3C//DTD SVG 1.1//EN" "http://www.w3.org/Graphics/SVG/1.1/DTD/svg11.dtd">
<svg version="1.1" id="Layer_1" xmlns="http://www.w3.org/2000/svg" xmlns:xlink="http://www.w3.org/1999/xlink" x="0px" y="0px"
	 width="71.729px" height="105.418px" viewBox="0 0 71.729 105.418" enable-background="new 0 0 71.729 105.418"
	 xml:space="preserve">
<path fill="#005DAA" d="M49.013,33.16c0,0-0.166-1.244,0.328-1.996c0.448-0.729,1.574-0.869,1.574-0.869V29.59H20.881v0.705
	c0,0,1.107,0.141,1.569,0.869c0.48,0.752,0.346,1.996,0.346,1.996H49.013"/>
<rect x="22.95" y="14.416" fill="#005DAA" width="1.774" height="13.319"/>
<rect x="47.04" y="14.416" fill="#005DAA" width="1.785" height="13.319"/>
<rect x="32.934" y="14.416" fill="#005DAA" width="1.782" height="13.319"/>
<rect x="36.614" y="14.416" fill="#005DAA" width="1.78" height="13.319"/>
<polyline fill="#005DAA" points="51.949,69.643 19.821,69.643 20.645,53.692 51.103,53.692 51.949,69.643 "/>
<polyline fill="#005DAA" points="53.968,105.418 18.186,105.418 18.903,89.655 53.053,89.655 53.968,105.418 "/>
<polyline fill="#005DAA" points="52.959,87.799 18.995,87.799 19.78,71.499 52.089,71.499 52.959,87.799 "/>
<polyline fill="#005DAA" points="48.683,40.582 23.058,40.582 23.327,34.874 48.332,34.874 48.683,40.582 "/>
<path fill="#005DAA" d="M36.923,4.78c0.122-0.587,1.087-1.432,0.736-2.278c-0.376-0.847-0.971-0.493-1.219-0.964
	c-0.235-0.47-0.107-1.197-0.635-1.197c-0.528,0-0.354,0.728-0.599,1.197c-0.248,0.471-0.85,0.117-1.218,0.964
	c-0.352,0.847,0.614,1.69,0.727,2.278H36.923"/>
<path fill="#005DAA" d="M15.749,42.51v0.728c0,0,1.186,0.142,1.684,0.87c0.246,0.353,0.335,2.583,0.369,3.946l0.007-0.023h1.677
	v1.197l1.554,2.49h3.636l-0.762-2.514l-0.039-1.174h1.75v1.197l0.886,2.49h4.567l-0.384-2.514l-0.036-1.174h1.745v1.197l0.502,2.49
	h5.504l0.492-2.49V48.03h1.755l-0.029,1.174l-0.394,2.514h4.618l0.893-2.49V48.03h1.738l-0.022,1.174l-0.752,2.514h3.549l1.62-2.49
	V48.03h1.689c0.025-1.785,0.12-3.595,0.376-3.923c0.517-0.659,1.622-0.87,1.622-0.87V42.51H15.749"/>
<path fill="#005DAA" d="M22.95,12.605c0,0,4.45-5.967,12.831-5.967c8.392,0,13.09,5.967,13.09,5.967H22.95"/>
<polyline fill="#005DAA" points="21.195,27.125 0.051,39.292 0.051,37.225 21.195,24.961 21.195,27.125 "/>
<polyline fill="#005DAA" points="0,4.925 21.159,17.115 21.159,15.002 0.051,2.81 0,4.925 "/>
<polyline fill="#005DAA" points="50.564,27.125 71.706,39.292 71.729,37.225 50.564,24.961 50.564,27.125 "/>
<polyline fill="#005DAA" points="71.751,4.925 50.587,17.115 50.587,15.002 71.706,2.81 71.751,4.925 "/>
</svg>
