<?xml version="1.0" encoding="utf-8"?>
<!-- Generator: Adobe Illustrator 15.0.2, SVG Export Plug-In . SVG Version: 6.00 Build 0)  -->
<!DOCTYPE svg PUBLIC "-//W3C//DTD SVG 1.1//EN" "http://www.w3.org/Graphics/SVG/1.1/DTD/svg11.dtd">
<svg version="1.1" id="Layer_1" xmlns="http://www.w3.org/2000/svg" xmlns:xlink="http://www.w3.org/1999/xlink" x="0px" y="0px"
	 width="71.314px" height="118.718px" viewBox="0 0 71.314 118.718" enable-background="new 0 0 71.314 118.718"
	 xml:space="preserve">
<path fill="#B9C9DF" d="M35.017,115.111c0,0.646-0.024,3.583-0.024,3.583l7.188,0.024c0,0,0.104-2.444,0.104-3.711
	c0-1.26,0-8.473,1.802-14.881c0.837-3.058,2.614-6.631,5.071-10.606c2.458-3.964,5.383-6.896,6.194-7.694
	c0.784-0.803,3.553-2.775,3.478-3.103c-0.079-0.31-3.816,1.036-8.889,5.805c-2.09,1.944-4.284,4.41-6.664,8.022
	c-3.526,5.338-5.147,9.658-6.35,12.777C35.75,108.458,35.017,114.121,35.017,115.111"/>
<path fill="#B9C9DF" d="M36.35,101.494c0,0-0.39,1.028-0.758,1.993c-0.653,1.746-1.516,5.4-1.516,5.4s-0.234-1.792-0.783-3.591
	c-0.914-3.021-3.318-9.916-5.305-14.412c-5.255-11.809-13.305-21.02-13.67-21.457c-0.364-0.446-0.678-0.801-0.443-0.865
	c0.26-0.045,0.862,0.211,1.202,0.579c0.313,0.358,2.901,1.631,5.018,4.132c3.162,3.721,7.711,10.669,7.711,10.669
	c-0.603-3.546-7.162-15.261-13.877-27.177c-3.4-6.005-8.417-13.347-9.725-14.894c-1.357-1.536-4.65-5.932-4.574-6.131
	c0.104-0.226,2.954,1.838,4.289,2.775c1.277,0.919,4.704,4.339,9.957,11.644c0.968,1.32,6.718,8.706,10.952,17.522
	c4.755,9.916,6.743,14.873,8.23,19.929C34.704,93.251,36.35,101.494,36.35,101.494"/>
<path fill="#B9C9DF" d="M54.934,57.857c2.772-7.727,5.985-14.611,8.963-19.55c3.166-5.258,6.483-8.989,6.772-9.495
	c0.26-0.503,0.469-0.838,0.625-0.723c0.209,0.182-1.202,2.501-2.142,4.877c-0.968,2.41-5.385,9.898-11.003,27.171
	c-3.216,9.79-4.469,15.864-5.071,19.249c0,0-2.874,2.259-3.867,3.265c-0.996,1.021-3.555,3.649-3.555,3.649
	S49.966,71.639,54.934,57.857"/>
<path fill="#B9C9DF" d="M62.251,17.521c-0.653-1.31-1.75-2.53-3.059-3.246L62.33,1.824c0.234-0.842,0.364-1.576-0.523-1.774
	c-0.758-0.176-1.332,0.097-1.595,1.023L56.92,13.618c-0.13,0-3.032-0.036-4.834,2.139c-1.281,1.546-2.328,5.692-2.328,5.692
	l-8.021,29.223c0,0-1.098,2.865-0.603,4.81c0.498,1.884,1.83,3.492,3.686,4.248c0,0-1.566,5.794-3.083,14.025
	c-1.96,10.717-2.509,16.465-2.509,17.185c0,0.712-0.13,1.457-0.13,1.457l-4.837-24.252c1.57-0.755,2.718-2.047,3.216-3.392
	c0.758-1.916,0.077-4.687,0.077-4.687l-5.957-29.482c0,0-0.603-5.584-2.98-7.367c-1.175-0.903-2.69-1.481-4.206-1.541L21.661,9.144
	c-0.182-0.846-0.391-1.564-1.279-1.355c-0.758,0.163-1.151,0.682-0.967,1.646l2.665,12.66c-0.104,0.059-2.874,1.539-3.344,4.086
	c-0.472,2.547,0.495,6.138,0.495,6.138l5.906,29.702c0,0,0.288,3.068,1.621,4.594c1.281,1.493,3.79,2.387,5.28,1.981
	c0.051-0.017,4.207,20.633,5.068,25.967c0.234,1.325,0.498,2.655,0.603,3.735c0,0,0.758-1.489,1.775-3.23
	c1.021-1.727,1.885-2.99,1.885-2.99c0.364-4.787,0.834-9.47,2.167-17.041c1.544-8.804,3.504-14.836,3.504-14.836
	c1.775,0.074,3.448-0.58,4.52-1.562c1.542-1.394,2.17-4.157,2.17-4.157l7.866-29.029C61.598,25.454,63.586,20.188,62.251,17.521
	 M32.299,66.5c-0.184-0.191,0.758-0.119,1.282-2.477c0.443-2.025-0.365-4.885-0.365-4.885L27.44,30.904c0,0-0.628-3.377-1.778-5.105
	c-1.308-2.028-1.803-1.215-1.673-1.491c0.131-0.38,2.483-0.709,3.712,0.917c1.228,1.639,1.776,4.88,1.776,4.88l5.959,29.033
	c0,0,0.783,2.713,0.234,4.686C35.122,65.791,32.534,66.701,32.299,66.5 M59.952,24.09l-7.711,28.59c0,0-0.471,2.786-1.882,4.304
	c-1.356,1.497-4.104,1.163-4.208,0.892c-0.076-0.275,0.732,0.228,2.249-1.65c1.308-1.606,1.855-4.519,1.855-4.519l7.476-27.845
	c0,0,0.993-3.278,0.759-5.359c-0.288-2.383-1.099-1.891-0.892-2.08c0.313-0.266,2.563,0.5,2.928,2.48
	C60.893,20.972,59.952,24.09,59.952,24.09z"/>
<path fill="#B9C9DF" d="M62.251,17.521c-0.653-1.31-1.75-2.53-3.059-3.246L62.33,1.824c0.234-0.842,0.364-1.576-0.523-1.774
	c-0.758-0.176-1.332,0.097-1.595,1.023L56.92,13.618c-0.13,0-3.032-0.036-4.834,2.139c-1.281,1.546-2.328,5.692-2.328,5.692
	l-8.021,29.223c0,0-1.098,2.865-0.603,4.81c0.498,1.884,1.83,3.492,3.686,4.248c0,0-1.566,5.794-3.083,14.025
	c-1.96,10.717-2.509,16.465-2.509,17.185c0,0.712-0.13,1.457-0.13,1.457l-4.837-24.252c1.57-0.755,2.718-2.047,3.216-3.392
	c0.758-1.916,0.077-4.687,0.077-4.687l-5.957-29.482c0,0-0.603-5.584-2.98-7.367c-1.175-0.903-2.69-1.481-4.206-1.541L21.661,9.144
	c-0.182-0.846-0.391-1.564-1.279-1.355c-0.758,0.163-1.151,0.682-0.967,1.646l2.665,12.66c-0.104,0.059-2.874,1.539-3.344,4.086
	c-0.472,2.547,0.495,6.138,0.495,6.138l5.906,29.702c0,0,0.288,3.068,1.621,4.594c1.281,1.493,3.79,2.387,5.28,1.981
	c0.051-0.017,4.207,20.633,5.068,25.967c0.234,1.325,0.498,2.655,0.603,3.735c0,0,0.758-1.489,1.775-3.23
	c1.021-1.727,1.885-2.99,1.885-2.99c0.364-4.787,0.834-9.47,2.167-17.041c1.544-8.804,3.504-14.836,3.504-14.836
	c1.775,0.074,3.448-0.58,4.52-1.562c1.542-1.394,2.17-4.157,2.17-4.157l7.866-29.029C61.598,25.454,63.586,20.188,62.251,17.521
	 M32.299,66.5c-0.184-0.191,0.758-0.119,1.282-2.477c0.443-2.025-0.365-4.885-0.365-4.885L27.44,30.904c0,0-0.628-3.377-1.778-5.105
	c-1.308-2.028-1.803-1.215-1.673-1.491c0.131-0.38,2.483-0.709,3.712,0.917c1.228,1.639,1.776,4.88,1.776,4.88l5.959,29.033
	c0,0,0.783,2.713,0.234,4.686C35.122,65.791,32.534,66.701,32.299,66.5 M59.952,24.09l-7.711,28.59c0,0-0.471,2.786-1.882,4.304
	c-1.356,1.497-4.104,1.163-4.208,0.892c-0.076-0.275,0.732,0.228,2.249-1.65c1.308-1.606,1.855-4.519,1.855-4.519l7.476-27.845
	c0,0,0.993-3.278,0.759-5.359c-0.288-2.383-1.099-1.891-0.892-2.08c0.313-0.266,2.563,0.5,2.928,2.48
	C60.893,20.972,59.952,24.09,59.952,24.09z"/>
</svg>
