<svg enable-background="new 0 0 51.439 100.367" height="442.807443" viewBox="0 0 51.439 100.367" width="225.831796" xmlns="http://www.w3.org/2000/svg"><path d="m26.851 30.347v-9.887h-1.795v9.887zm-4.094 0v-9.887h-1.792v9.887zm6.395 0h1.792v-9.887h-1.792zm.423-17.247c-.837-1.985-2.518-3.475-3.57-3.475-1.153 0-2.914 1.532-3.799 3.453-.671 1.425-1.261 5.721-1.261 5.721h9.989c.001.001-.523-3.69-1.359-5.699m-7.09-8.718c.272-.151.318-.498.5-.604.69-.367 1.563.604 1.815 1.014.365.605.616.733.616 1.986v1.252h1.009v-1.253c0-1.252.235-1.381.614-1.986.245-.409 1.126-1.38 1.818-1.014.178.106.219.453.484.604.521.302.904-.089.954-.346.047-.259-.086-.498-.348-.648-.747-.429-1.507-.387-2.152-.173-.572.196-1.442.951-1.442.951s-.168-2.158-.168-2.763c0-.603-.055-1.402-.303-1.402-.233 0-.233.799-.233 1.402 0 .604-.169 2.763-.169 2.763s-.872-.754-1.438-.951c-.636-.214-1.406-.256-2.157.173-.262.151-.396.39-.35.648.054.258.438.649.95.347m22.063 50.441c-3.742-5.763-10.442-10.426-18.448-10.426-7.995 0-14.956 5.396-18.312 10.685-3.354 5.289-3.871 15.109-3.871 15.109l44.236.021c.002.002.131-9.603-3.605-15.389m-10.024-17.742s-.981-.151-1.578-.754c-2.385-2.354-1.964-4.254-1.964-4.254h-9.99s.362 2.03-2.022 4.254c-.626.582-1.586.754-1.586.754v.691h17.142zm14.986 34.946h-47.537v5.113h47.537zm-42.043 4.099c-.876.173-1.744-.367-1.925-1.208-.177-.843.386-1.663 1.269-1.855.884-.15 1.744.39 1.927 1.229.183.842-.384 1.662-1.271 1.834m5.346 0c-.88.173-1.741-.367-1.927-1.208-.181-.843.388-1.663 1.265-1.855.883-.15 1.75.39 1.937 1.229.176.842-.384 1.662-1.275 1.834m5.346 0c-.888.173-1.747-.367-1.929-1.208-.181-.843.386-1.663 1.266-1.855.885-.15 1.746.39 1.928 1.229.184.842-.386 1.662-1.265 1.834m5.336 0c-.877.173-1.738-.367-1.921-1.208-.182-.843.387-1.663 1.271-1.855.878-.15 1.743.39 1.92 1.229.189.842-.378 1.662-1.27 1.834m5.346 0c-.879.173-1.746-.367-1.923-1.208-.192-.843.385-1.663 1.263-1.855.883-.15 1.744.39 1.926 1.229.189.842-.376 1.662-1.266 1.834m5.349 0c-.879.173-1.744-.367-1.934-1.208-.182-.843.386-1.663 1.267-1.855.891-.15 1.749.39 1.929 1.229.184.842-.384 1.662-1.262 1.834m5.333 0c-.876.173-1.74-.367-1.918-1.208-.186-.843.389-1.663 1.27-1.855.879-.15 1.749.39 1.924 1.229.183.842-.384 1.662-1.276 1.834m5.349 0c-.876.173-1.752-.367-1.92-1.208-.188-.843.384-1.663 1.269-1.855.872-.15 1.735.39 1.921 1.229.181.842-.392 1.662-1.27 1.834m-44.872 2.743v.689s1.431.346 2.973 2.311c1.251 1.576 1.141 3.949 1.141 3.949v14.549h43.215v-14.549s-.113-2.373 1.144-3.949c1.522-1.965 2.968-2.311 2.968-2.311v-.689zm8.569 18.949h-2.378v-14.286h2.378zm5.293 0h-2.381v-14.286h2.381zm5.285 0h-2.376v-14.286h2.376zm5.289 0h-2.378v-14.286h2.378zm5.295 0h-2.376v-14.286h2.376zm5.294 0h-2.383v-14.286h2.383zm5.288 0h-2.379v-14.286h2.379zm5.284 0h-2.375v-14.286h2.375zm-26.629-56.831c.479.736.328 1.922.328 1.922h13.317s-.153-1.187.332-1.922c.465-.689 1.578-.841 1.578-.841v-.689h-17.141v.689s1.117.151 1.586.841z" fill="#ef3e42"/></svg>