<?xml version="1.0" encoding="utf-8"?>
<!-- Generator: Adobe Illustrator 15.0.2, SVG Export Plug-In . SVG Version: 6.00 Build 0)  -->
<!DOCTYPE svg PUBLIC "-//W3C//DTD SVG 1.1//EN" "http://www.w3.org/Graphics/SVG/1.1/DTD/svg11.dtd">
<svg version="1.1" id="Layer_1" xmlns="http://www.w3.org/2000/svg" xmlns:xlink="http://www.w3.org/1999/xlink" x="0px" y="0px"
	 width="64.336px" height="76.021px" viewBox="0 0 64.336 76.021" enable-background="new 0 0 64.336 76.021" xml:space="preserve">
<path fill="#00A4E4" d="M32.667,64.898l0.016-3.657c0,0,26.233-1.321,26.589-1.321c0.355-0.019,0.764-0.084,0.711-0.561
	c-0.051-0.473-0.423-0.541-0.763-0.541c-0.372,0-0.66-0.019-0.763-0.321c-0.065-0.152,3.117-17.513-1.558-29.773
	C51.295,14.074,35.918,8.57,32.702,7.537l0.018-6.301c0-0.948-0.255-1.235-0.695-1.235c-0.458,0-0.627,0.288-0.627,1.235
	c0,0-1.151-0.187-1.625,0c-0.475,0.187-0.746,0.524-1.102,0.779c-0.389,0.271-0.915,0.508-1.607,0.524
	c-0.578,0.035-2.626-0.188-2.626-0.188c-1.016,0.288-1.558,0.999-2.337,1.456c-0.763,0.458-2.726,0.915-2.997,1.118
	c-0.288,0.188-0.982,0.575-0.678,0.66c0.322,0.103,2.472,0.051,3.066,0.306c0.576,0.253,0.88,0.915,1.897,0.561
	c1.016-0.374,0.964-0.982,1.643-1.203c1.422-0.509,2.658,0.304,3.081,0.473c0.17,0.068,0.627,0.136,1.153-0.017
	C29.89,5.504,31.396,5.2,31.396,5.2s0,0.693,0,3.369c0,2.658,0.592,16.852-8.908,33.109C12.903,58.089,1.116,60.935,0.76,60.935
	c-0.356,0-0.729,0.068-0.762,0.561c-0.051,0.473,0.355,0.522,0.711,0.541c0.323,0,22.101-0.576,28.757-0.745
	c0,0,0.473-0.407,0.999-0.999c0.524-0.596,0.88-1.153,0.88-1.153l0.017,5.911L0.641,65.541l1.322,9.637
	c0,0,17.139,0.711,25.878,0.829c8.755,0.119,21.881-0.473,23.066-0.829c1.184-0.339,13.43-11.602,13.43-11.602L32.667,64.898
	 M32.667,57.141c1.778-4.302,4.386-11.854,4.386-21.813c0-7.824-2.338-16.783-4.334-23.167V8.84c1.506,3.979,5.74,15.26,5.64,26.708
	c-0.118,14.26-4.319,22.049-5.691,24.269L32.667,57.141L32.667,57.141z"/>
</svg>
