<?xml version="1.0" encoding="utf-8"?>
<!-- Generator: Adobe Illustrator 15.0.2, SVG Export Plug-In . SVG Version: 6.00 Build 0)  -->
<!DOCTYPE svg PUBLIC "-//W3C//DTD SVG 1.1//EN" "http://www.w3.org/Graphics/SVG/1.1/DTD/svg11.dtd">
<svg version="1.1" id="Layer_1" xmlns="http://www.w3.org/2000/svg" xmlns:xlink="http://www.w3.org/1999/xlink" x="0px" y="0px"
	 width="81.434px" height="100.279px" viewBox="0 0 81.434 100.279" enable-background="new 0 0 81.434 100.279"
	 xml:space="preserve">
<path fill="#9F218B" d="M61.012,67.68c0,0,3.479,3.965,3.979,4.402c0.572,0.498,1.619,0.498,2.738,0.498
	c1.239,0,11.771-3.147,12.13-4.394c0.499-1.743-5.864-2.995-9.794-4.827c-2.383-1.113-7.243-4.662-9.458-6.907
	c-1.408-1.377-5.219-6.056-5.219-6.056l1.168-1.17c0,0,3.024,3.374,3.334,3.476c0.525,0.19,1.05,0.474,2.169,0.474
	c1.239,0,10.389-2.737,10.865-4.487c0.476-1.757-4.433-2.472-8.364-4.313c-2.406-1.104-7.076-3.813-9.745-6.583
	c-1-1.021-2.024-2.314-2.883-3.443l-1.168-1.417l1.358-1.104c0,0,2.241,2.671,2.527,2.854c0.619,0.345,1.382,0.729,2.762,0.729
	c1.313,0,8.365-2.955,8.675-4.104c0.429-1.502-3.646-1.575-7.292-3.441c-2.356-1.181-5.599-4.57-7.267-6.23
	C44.738,14.962,42.283,0,40.878,0s-4.646,15.583-10.604,21.635c-1.668,1.701-4.907,5.053-7.268,6.231
	c-3.669,1.866-7.743,1.939-7.314,3.441c0.333,1.148,7.388,4.104,8.698,4.104c1.355,0,2.143-0.385,2.738-0.729
	c0.286-0.185,2.598-2.933,2.598-2.933l1.312,1.146l-1.19,1.482c-0.883,1.13-1.908,2.405-2.884,3.41
	c-2.669,2.77-7.315,5.479-9.722,6.583c-3.956,1.841-8.863,2.555-8.389,4.313c0.5,1.75,9.626,4.487,10.89,4.487
	c1.119,0,1.62-0.282,2.146-0.474c0.283-0.102,3.357-3.476,3.357-3.476l1.313,1.21c0,0-3.981,4.803-5.314,6.139
	c-2.241,2.255-7.147,5.67-9.507,6.783c-3.954,1.833-10.292,3.084-9.792,4.827c0.333,1.244,10.865,4.394,12.128,4.394
	c1.12,0,2.238-0.158,2.811-0.661c0.478-0.434,3.907-4.24,3.907-4.24l1.359,1.145c0,0-3.501,4.29-4.502,5.34
	c-2.001,2.081-6.22,4.852-8.721,5.971c-5.22,2.334-8.937,2.541-8.555,4.217c0.428,2.072,10.627,5.259,11.818,5.397
	c16.989,2.112,25.447-3.433,25.447-3.433v13.968h6.506v-14.08c0,0,5.431,6.454,25.47,3.551c1.168-0.159,11.367-3.325,11.818-5.397
	c0,0-3.334-1.883-8.577-4.217c-2.501-1.119-6.625-3.943-8.648-6.023c-1.023-1.063-4.527-5.228-4.527-5.228L61.012,67.68"/>
</svg>
