<?xml version="1.0" encoding="utf-8"?>
<!-- Generator: Adobe Illustrator 15.0.2, SVG Export Plug-In . SVG Version: 6.00 Build 0)  -->
<!DOCTYPE svg PUBLIC "-//W3C//DTD SVG 1.1//EN" "http://www.w3.org/Graphics/SVG/1.1/DTD/svg11.dtd">
<svg version="1.1" id="Layer_1" xmlns="http://www.w3.org/2000/svg" xmlns:xlink="http://www.w3.org/1999/xlink" x="0px" y="0px"
	 width="90.355px" height="109.117px" viewBox="0 0 90.355 109.117" enable-background="new 0 0 90.355 109.117"
	 xml:space="preserve">
<path fill="#FAA634" d="M17.588,14.769c-0.529-1.354-1.237-2.73-2.263-4.223c-1.188-1.732-1.313-3.928-1.202-4.95
	c0.205-1.838,0.845-4.55,0.643-5.161c-0.205-0.611-0.409-0.611-0.813,0.205c-0.488,0.972-0.888,2.792-1.801,3.705
	c-0.813,0.81-1.917,2.002-1.818,3.871c0.05,1.038,0,2.659,0,2.659S9.488,10.969,8.787,9.61L8.183,7.84
	C7.71,7.958,7.574,8.87,7.718,9.987c0.136,1.119,0.465,2.801,0.37,3.083c-0.094,0.282-0.79,0.321-1.164-0.232
	c-0.374-0.564-0.842-1.495-0.936-2.013c-0.091-0.51-0.32-1.164-0.604-1.073c-0.281,0.097-0.326,0.658-0.326,1.591
	c0,0.931-0.052,3.035-0.375,3.641c-0.327,0.607-0.749,1.215-0.979,2.374c-0.236,1.171,0.277,3.51,0.745,3.882
	c0.467,0.367-1.073,1.68-2.103,2.281c-1.028,0.604-1.35,1.172-1.35,1.172l-0.607,2.2h21.165l-0.429-2.139
	c0,0-2.021-1.352-2.433-1.779c-1.169-1.197-1.747-1.6-1.458-2.064C17.694,20.18,18.776,17.793,17.588,14.769"/>
<path fill="#FAA634" d="M0.169,28.707c0,0-0.175,1.929-0.07,3.211c0.111,1.28,0.132,3.573,1.416,4.75
	c1.28,1.172,3.152,2.027,3.581,3.201c0.425,1.181,0.787,6.015,1.957,7.124c0.791,0.753,5.667,17.539,6.845,20.208
	c1.174,2.675,2.746,7.447,3.602,9.701c0.854,2.238,2.06,5.584,0.999,7.41c-1.076,1.821-3,3.957-3.106,5.238
	c-0.105,1.282,0.432,2.248-0.105,4.6c-0.537,2.349-1.501,5.24-1.287,5.98c0.217,0.749,1.074,2.035,2.568,2.248
	c1.499,0.209,1.818,0.967,2.246,0.857c0.432-0.113,1.819-0.957,2.032-0.537c0.211,0.424,0.109,0.854-0.212,1.074
	c-0.322,0.211-0.535,0.43-0.215,0.961c0.322,0.533,1.604,1.063,2.031,1.285c0.429,0.215,0.533,0.959,0.322,1.279
	c-0.217,0.326-0.963,1.281-0.963,1.281l0.214,0.535h62.872c0,0,5.561-5.027,5.459-8.014c-0.112-2.998-0.321-2.461-1.717-3.32
	c-1.393-0.858-1.927-2.143-4.703-4.063c-2.775-1.921-5.34-2.141-7.38-2.25c-2.032-0.103-3.307-0.423-3.526-1.274
	c-0.211-0.86,0.105-2.144,0.534-2.894c0.426-0.739,0.855-1.167,0.426-1.811c-0.426-0.647-1.71-1.822-1.921-2.356
	c-0.21-0.531-0.21-2.673-0.21-3.639c0-0.96-0.219-1.604-0.431-1.823c-0.218-0.207-0.537-1.709-0.537-2.346
	c0-0.638-1.283-2.564-1.391-2.996c-0.109-0.419-0.214-1.494-0.214-1.494l18.502-9.192l-0.221-0.855l-18.919,5.988
	c0,0-0.646-0.969-0.86-1.4c-0.216-0.417-0.749-1.383-0.749-1.383l11.02-13.262l-0.645-0.637L64.257,61.105
	c0,0-0.959-0.748-1.709-1.071c-0.747-0.32-1.174-0.748-1.174-0.748l2.351-14.972l-0.641-0.318l-6.097,14.225
	c0,0-1.175-0.111-2.563,0c-1.391,0.111-2.678,0.422-2.678,0.422l-7.374-14.115l-0.54,0.218l4.28,15.182c0,0-0.531,0.432-1.391,1.07
	c-0.855,0.646-1.284,0.964-1.284,0.964l-13.9-8.021l-0.313,0.428L42.66,65.493c0,0-0.428,0.637-0.75,1.385
	c-0.321,0.754-0.53,1.927-0.53,1.927l-11.201,0.17l0.418,1.772l10.669,1.795c0,0,0.215,1.499,0.431,2.243
	c0.213,0.758,0.534,2.359,0.534,2.359l-4.292,2.019l1.153,1.913l4.419-1.367c0,0,0.754,0.968,0.965,1.5
	c0.212,0.534,0.857,2.673,1.387,2.986c0.534,0.326,1.178,0.759,1.178,1.295c0,0.523-0.106,1.387,0.319,1.925
	c0.433,0.526,0.537,2.989,0.537,2.989s-5.486-1.803-6.879-3.196c-1.391-1.379-3.648-5.286-5.741-8.786
	c-0.451-0.758-2.351-3.847-2.888-4.586c-0.532-0.758-1.28-1.184-1.922-1.295c-0.641-0.098-1.389-0.211-1.5-0.525
	c-0.104-0.328-0.729-4.685-1.691-7.033c-0.538-1.312-4.83-8.658-7.333-14.825c-1.992-4.902-1.798-6.04-2.085-6.938
	c-0.638-2.037,0.306-5.32,0.945-6.071c0.643-0.745,2.093-2.001,2.894-4.754c0.447-1.525,0.17-3.583,0.17-3.583L0.169,28.707"/>
</svg>
