<?xml version="1.0" encoding="UTF-8"?>
<svg version="1.1" xmlns="http://www.w3.org/2000/svg" width="225" height="225">
<path d="M0 0 C74.25 0 148.5 0 225 0 C225 74.25 225 148.5 225 225 C150.75 225 76.5 225 0 225 C0 150.75 0 76.5 0 0 Z " fill="#FEFEFE" transform="translate(0,0)"/>
<path d="M0 0 C74.25 0 148.5 0 225 0 C225 74.25 225 148.5 225 225 C150.75 225 76.5 225 0 225 C0 150.75 0 76.5 0 0 Z M52.4375 18.4375 C50.81678132 21.3266072 50.47009265 23.74516804 50 27 C48.60587891 26.93039063 48.60587891 26.93039063 47.18359375 26.859375 C37.34149912 26.49188339 37.34149912 26.49188339 29 31 C25.13709895 35.16786693 23.88045277 38.23054069 23.85282898 43.85154724 C23.84567368 44.85117493 23.83851837 45.85080261 23.83114624 46.88072205 C23.82845734 47.97638992 23.82576843 49.0720578 23.82299805 50.20092773 C23.81642685 51.35561554 23.80985565 52.51030334 23.80308533 53.69998169 C23.78334463 57.52785299 23.77168995 61.35568512 23.76171875 65.18359375 C23.75764322 66.48872484 23.7535677 67.79385593 23.74936867 69.13853645 C23.73032697 75.33005209 23.71609162 81.52155585 23.7077567 87.71309513 C23.69797591 94.86043852 23.67163062 102.0074729 23.63125581 109.15470737 C23.60111337 114.68005273 23.58628978 120.20530937 23.58297569 125.73073536 C23.58062376 129.03080283 23.56967818 132.33046381 23.54651451 135.63046074 C23.52228255 139.3104533 23.52305896 142.98963057 23.5300293 146.66967773 C23.51721924 147.76332138 23.50440918 148.85696503 23.49121094 149.98374939 C23.49815475 150.9861969 23.50509857 151.98864441 23.51225281 153.02146912 C23.50986445 153.89143241 23.5074761 154.7613957 23.50501537 155.65772152 C24.16765216 158.79333384 25.55138374 160.00303765 28 162 C30.29928414 162.63154654 30.29928414 162.63154654 32.765625 162.609375 C34.09980469 162.65771484 34.09980469 162.65771484 35.4609375 162.70703125 C36.38132812 162.72121094 37.30171875 162.73539063 38.25 162.75 C39.18585937 162.77964844 40.12171875 162.80929688 41.0859375 162.83984375 C43.39071092 162.91039804 45.69448168 162.96316252 48 163 C48.33 163.99 48.66 164.98 49 166 C45.04 166.33 41.08 166.66 37 167 C37 183.17 37 199.34 37 216 C44.26 216 51.52 216 59 216 C59.33 215.67 59.66 215.34 60 215 C60 212.03 60 209.06 60 206 C68.58 206 77.16 206 86 206 C86 204.02 86 202.04 86 200 C103.49 200 120.98 200 139 200 C139 201.98 139 203.96 139 206 C147.58 206 156.16 206 165 206 C165 209.3 165 212.6 165 216 C172.59 216 180.18 216 188 216 C188 199.83 188 183.66 188 167 C184.04 166.67 180.08 166.34 176 166 C176.33 165.01 176.66 164.02 177 163 C177.58491211 162.9906543 178.16982422 162.98130859 178.77246094 162.97167969 C181.4324858 162.91786721 184.09077222 162.83424551 186.75 162.75 C187.67039063 162.73582031 188.59078125 162.72164062 189.5390625 162.70703125 C190.42851562 162.67480469 191.31796875 162.64257812 192.234375 162.609375 C193.05131836 162.58842773 193.86826172 162.56748047 194.70996094 162.54589844 C198.07210361 161.74443245 198.97735024 160.85863542 201 158 C201.61929556 154.25198381 201.5458097 150.52445401 201.51757812 146.7331543 C201.5245874 145.58313934 201.53159668 144.43312439 201.53881836 143.2482605 C201.55644779 139.44000215 201.54475489 135.6324849 201.53125 131.82421875 C201.53394402 129.17869423 201.53782569 126.53317067 201.54284668 123.88764954 C201.55012333 118.33851077 201.54053835 112.78958494 201.52148438 107.24047852 C201.49974747 100.8363084 201.50674326 94.43264832 201.52879 88.02849072 C201.54698218 82.52256954 201.54948282 77.01680134 201.53903532 71.51085979 C201.53281705 68.22586222 201.53350096 64.94115501 201.54518127 61.65616417 C201.55535647 57.9887706 201.53982853 54.32235051 201.51757812 50.6550293 C201.52567505 49.57374252 201.53377197 48.49245575 201.54211426 47.37840271 C201.47085147 41.02799744 200.76821337 37.17113298 197 32 C192.00872539 27.37394061 188.50201815 26.87612827 181.8125 26.9375 C180.54019531 26.94652344 179.26789063 26.95554687 177.95703125 26.96484375 C176.98121094 26.97644531 176.00539062 26.98804688 175 27 C174.87496094 26.07445312 174.74992188 25.14890625 174.62109375 24.1953125 C173.81755171 20.06136665 172.17357246 17.64398901 169 15 C159.87703019 9.05045601 148.21680149 10.40149425 137.8125 10.43359375 C135.74324261 10.42835144 133.67398761 10.42207275 131.60473633 10.41481018 C127.28097234 10.4044361 122.95753808 10.40892507 118.63378906 10.42358398 C113.11261611 10.44077724 107.59248338 10.41725348 102.07142639 10.38209438 C97.80238036 10.36006135 93.53358104 10.36157601 89.26449585 10.3698597 C87.22967385 10.37067578 85.19483311 10.3638785 83.1600647 10.34908867 C66.43415096 10.07657635 66.43415096 10.07657635 52.4375 18.4375 Z " fill="#FEFEFE" transform="translate(0,0)"/>
<path d="M0 0 C0.90208694 -0.00700928 1.80417389 -0.01401855 2.7335968 -0.02124023 C5.68868631 -0.03871463 8.64280268 -0.02723411 11.59790039 -0.01367188 C13.66858604 -0.01637006 15.73927045 -0.02025519 17.80995178 -0.02526855 C22.13970052 -0.03114953 26.46911805 -0.02264663 30.79882812 -0.00390625 C36.32776012 0.01886789 41.85591464 0.0057607 47.38481808 -0.01819611 C51.65814488 -0.03270413 55.93128975 -0.02802493 60.20462227 -0.01768494 C62.24222469 -0.01503073 64.27984404 -0.01824105 66.31742668 -0.02760315 C88.95604292 -0.10880078 88.95604292 -0.10880078 96.15977478 5.8939209 C99.27482456 9.20300219 99.91753416 12.1464942 100.50805664 16.51757812 C101.4374707 16.47117187 102.36688477 16.42476562 103.32446289 16.37695312 C115.90364012 16.00967788 115.90364012 16.00967788 121.50805664 20.51757812 C125.37095769 24.68544505 126.62760387 27.74811882 126.65522766 33.36912537 C126.66596062 34.86856689 126.66596062 34.86856689 126.6769104 36.39830017 C126.6795993 37.49396805 126.68228821 38.58963593 126.68505859 39.71850586 C126.69162979 40.87319366 126.69820099 42.02788147 126.70497131 43.21755981 C126.72471202 47.04543112 126.73636669 50.87326324 126.74633789 54.70117188 C126.75041342 56.00630297 126.75448895 57.31143406 126.75868797 58.65611458 C126.77772967 64.84763022 126.79196502 71.03913398 126.80029994 77.23067325 C126.81008073 84.37801664 126.83642602 91.52505103 126.87680084 98.6722855 C126.90694327 104.19763085 126.92176686 109.7228875 126.92508096 115.24831349 C126.92743288 118.54838096 126.93837846 121.84804193 126.96154213 125.14803886 C126.98577409 128.82803143 126.98499768 132.5072087 126.97802734 136.18725586 C126.99724243 137.82772133 126.99724243 137.82772133 127.0168457 139.50132751 C127.00642998 141.00499878 127.00642998 141.00499878 126.99580383 142.53904724 C126.99819219 143.40901053 127.00058054 144.27897383 127.00304127 145.17529964 C126.34040448 148.31091196 124.9566729 149.52061577 122.50805664 151.51757812 C120.21801758 152.06347656 120.21801758 152.06347656 117.74243164 152.12695312 C116.40825195 152.17529297 116.40825195 152.17529297 115.04711914 152.22460938 C114.12672852 152.23878906 113.20633789 152.25296875 112.25805664 152.26757812 C111.32219727 152.29722656 110.38633789 152.326875 109.42211914 152.35742188 C107.11734572 152.42797616 104.81357496 152.48074064 102.50805664 152.51757812 C102.17805664 153.50757813 101.84805664 154.49757812 101.50805664 155.51757812 C105.46805664 155.84757813 109.42805664 156.17757812 113.50805664 156.51757812 C113.50805664 172.68757813 113.50805664 188.85757813 113.50805664 205.51757812 C105.91805664 205.51757812 98.32805664 205.51757812 90.50805664 205.51757812 C90.50805664 202.21757812 90.50805664 198.91757813 90.50805664 195.51757812 C81.92805664 195.51757812 73.34805664 195.51757812 64.50805664 195.51757812 C64.50805664 193.53757813 64.50805664 191.55757812 64.50805664 189.51757812 C47.01805664 189.51757812 29.52805664 189.51757812 11.50805664 189.51757812 C11.50805664 191.49757812 11.50805664 193.47757813 11.50805664 195.51757812 C2.92805664 195.51757812 -5.65194336 195.51757812 -14.49194336 195.51757812 C-14.49194336 198.48757812 -14.49194336 201.45757812 -14.49194336 204.51757812 C-14.82194336 204.84757813 -15.15194336 205.17757812 -15.49194336 205.51757812 C-22.75194336 205.51757812 -30.01194336 205.51757812 -37.49194336 205.51757812 C-37.49194336 189.34757812 -37.49194336 173.17757812 -37.49194336 156.51757812 C-33.53194336 156.18757812 -29.57194336 155.85757813 -25.49194336 155.51757812 C-25.82194336 154.52757812 -26.15194336 153.53757813 -26.49194336 152.51757812 C-27.36931152 152.50355957 -27.36931152 152.50355957 -28.2644043 152.48925781 C-30.92442916 152.43544533 -33.58271558 152.35182363 -36.24194336 152.26757812 C-37.16233398 152.25339844 -38.08272461 152.23921875 -39.03100586 152.22460938 C-39.92045898 152.19238281 -40.80991211 152.16015625 -41.72631836 152.12695312 C-42.54326172 152.10600586 -43.36020508 152.08505859 -44.2019043 152.06347656 C-47.56404697 151.26201057 -48.4692936 150.37621355 -50.49194336 147.51757812 C-51.11123892 143.76956193 -51.03775305 140.04203213 -51.00952148 136.25073242 C-51.01653076 135.10071747 -51.02354004 133.95070251 -51.03076172 132.76583862 C-51.04839115 128.95758028 -51.03669825 125.15006303 -51.02319336 121.34179688 C-51.02588738 118.69627235 -51.02976905 116.05074879 -51.03479004 113.40522766 C-51.04206669 107.85608889 -51.03248171 102.30716307 -51.01342773 96.75805664 C-50.99169083 90.35388653 -50.99868662 83.95022645 -51.02073336 77.54606885 C-51.03892554 72.04014766 -51.04142618 66.53437947 -51.03097868 61.02843791 C-51.02476041 57.74344035 -51.02544432 54.45873314 -51.03712463 51.17374229 C-51.04729983 47.50634873 -51.03177189 43.83992864 -51.00952148 40.17260742 C-51.01761841 39.09132065 -51.02571533 38.01003387 -51.03405762 36.89598083 C-50.96279483 30.54557557 -50.26015673 26.68871111 -46.49194336 21.51757812 C-41.50066875 16.89151873 -37.99396151 16.3937064 -31.30444336 16.45507812 C-30.03213867 16.46410156 -28.75983398 16.473125 -27.44897461 16.48242188 C-25.98524414 16.49982422 -25.98524414 16.49982422 -24.49194336 16.51757812 C-24.36819336 15.59203125 -24.24444336 14.66648437 -24.11694336 13.71289062 C-23.31633465 9.61977861 -21.62144013 7.15872815 -18.49194336 4.51757812 C-12.42510661 0.93803362 -6.95143125 -0.06773993 0 0 Z M-42.49194336 27.51757812 C-43.7008349 29.93536121 -43.61773203 31.45387757 -43.618927 34.15516663 C-43.62174683 35.13251266 -43.62456665 36.1098587 -43.62747192 37.11682129 C-43.62544769 38.19274536 -43.62342346 39.26866943 -43.62133789 40.37719727 C-43.62309021 41.50729721 -43.62484253 42.63739716 -43.62664795 43.80174255 C-43.6310636 47.5520886 -43.62812966 51.30238782 -43.62475586 55.05273438 C-43.62542893 57.64822906 -43.62639899 60.24372368 -43.62765503 62.83921814 C-43.62913158 68.28417619 -43.62707341 73.72911651 -43.62231445 79.17407227 C-43.61686934 85.47704626 -43.61863679 91.77998793 -43.62414086 98.08296114 C-43.62921739 104.13780037 -43.62869067 110.19262373 -43.62575912 116.24746513 C-43.62508965 118.82839398 -43.62591897 121.40932365 -43.62823868 123.99025154 C-43.63076345 127.58930814 -43.6269272 131.18830164 -43.62133789 134.78735352 C-43.62336212 135.86530182 -43.62538635 136.94325012 -43.62747192 138.05386353 C-43.6246521 139.02838974 -43.62183228 140.00291595 -43.618927 141.00697327 C-43.61854998 141.85887773 -43.61817295 142.71078218 -43.6177845 143.58850193 C-43.70442722 145.52495345 -43.70442722 145.52495345 -42.49194336 146.51757812 C-40.41863939 146.61660715 -38.34190288 146.64390139 -36.26623535 146.64456177 C-35.60863456 146.64612176 -34.95103377 146.64768175 -34.27350569 146.64928901 C-32.05397823 146.65330078 -29.83451829 146.6501087 -27.61499023 146.64697266 C-26.03027811 146.64832662 -24.44556631 146.65010652 -22.8608551 146.65228271 C-18.54486132 146.65685764 -14.22889133 146.65506725 -9.91289711 146.65190363 C-5.40632689 146.64938033 -0.89975877 146.65171748 3.60681152 146.65328979 C11.17627327 146.65511158 18.74572528 146.65270495 26.31518555 146.64794922 C35.07944091 146.64250658 43.843673 146.64426923 52.6079278 146.64977562 C60.11873146 146.6543065 67.62952811 146.65495743 75.1403327 146.65233696 C79.63234177 146.65077404 84.12433989 146.65058081 88.61634827 146.65387344 C92.83844662 146.65675179 97.06051485 146.65477714 101.28260994 146.64897919 C102.83669548 146.64765139 104.39078353 146.64804603 105.94486809 146.65024185 C108.05739641 146.65295261 110.16982665 146.64957319 112.28234863 146.64456177 C113.46739738 146.64418474 114.65244614 146.64380772 115.87340546 146.64341927 C118.4326399 146.81718349 118.4326399 146.81718349 119.50805664 145.51757812 C119.61245719 144.02361199 119.64768065 142.52475115 119.65522766 141.02716064 C119.66238297 140.05696991 119.66953827 139.08677917 119.6769104 138.08718872 C119.6795993 137.01395355 119.68228821 135.94071838 119.68505859 134.83496094 C119.69491539 133.14966782 119.69491539 133.14966782 119.70497131 131.43032837 C119.72476209 127.69378604 119.73637997 123.957284 119.74633789 120.22070312 C119.75041342 118.94808372 119.75448895 117.67546432 119.75868797 116.3642807 C119.77741699 110.32385502 119.79197669 104.28345393 119.80029994 98.24300694 C119.81006797 91.26884115 119.8363717 84.29499313 119.87680084 77.3209393 C119.91060414 71.28265493 119.92244545 65.24452473 119.92650414 59.20613861 C119.93138504 56.63686723 119.94304143 54.0675996 119.96154213 51.4983902 C119.98581122 47.90459229 119.98499038 44.31162769 119.97802734 40.71777344 C119.9908374 39.65263519 120.00364746 38.58749695 120.0168457 37.49008179 C119.98364348 31.63805019 119.98364348 31.63805019 117.60368347 26.38006592 C114.16653122 23.32529777 112.09957287 23.38792703 107.56864929 23.3704071 C106.3025885 23.3632518 105.03652771 23.3560965 103.73210144 23.34872437 C102.32107568 23.34588397 100.91004966 23.34317226 99.49902344 23.34057617 C98.01917358 23.33431257 96.5393253 23.32766586 95.05947876 23.32066345 C91.03253588 23.3032446 87.00560487 23.29269936 82.97863364 23.28445792 C80.4635909 23.2793098 77.94855186 23.273234 75.43351173 23.26694679 C67.56703262 23.24789252 59.7005629 23.2336617 51.83406514 23.22533482 C42.74881389 23.2155595 33.66380609 23.1892334 24.57864064 23.14883393 C17.55946986 23.11869083 10.54036893 23.10386769 3.52113467 23.10055381 C-0.67263308 23.09820131 -4.86614083 23.08921524 -9.05983925 23.06409264 C-13.00547774 23.04083817 -16.95068454 23.03656786 -20.89637375 23.04685402 C-22.34397885 23.04735013 -23.79160501 23.0410074 -25.23914528 23.02729797 C-27.21654637 23.00961923 -29.19413432 23.01905742 -31.17158508 23.02983093 C-32.83106407 23.0262484 -32.83106407 23.0262484 -34.52406788 23.0225935 C-38.18538115 23.63323023 -39.84906192 24.96366157 -42.49194336 27.51757812 Z " fill="#8A67C4" transform="translate(74.491943359375,10.482421875)"/>
<path d="M0 0 C1.09331131 0.02226654 2.18662262 0.04453308 3.31306458 0.06747437 C4.49669083 0.04819885 5.68031708 0.02892334 6.89981079 0.00906372 C10.78224746 -0.03904765 14.65909537 -0.00742216 18.5415802 0.02987671 C21.25724178 0.02742074 23.9728066 0.01178983 26.68843079 -0.00201416 C32.36778932 -0.02195415 38.04556782 0.00414782 43.72468567 0.05673218 C50.26466089 0.11659319 56.80086345 0.09719612 63.34074736 0.03664172 C68.98388259 -0.01349168 74.62589068 -0.02021873 80.26917696 0.00846708 C83.62777655 0.02550481 86.98320429 0.02383274 90.34191895 -0.0084343 C94.09136125 -0.03655471 97.83368115 0.00642279 101.58259583 0.06747437 C103.22256279 0.03407455 103.22256279 0.03407455 104.8956604 0 C115.7151936 0.32451382 116.0628828 3.60586681 124.9478302 12.49081421 C124.9478302 30.64081421 124.9478302 48.79081421 124.9478302 67.49081421 C77.0978302 67.49081421 29.2478302 67.49081421 -20.0521698 67.49081421 C-20.0521698 49.34081421 -20.0521698 31.19081421 -20.0521698 12.49081421 C-7.79515834 0.23380275 -7.79515834 0.23380275 0 0 Z " fill="#8A67C4" transform="translate(60.05216979980469,40.509185791015625)"/>
<path d="M0 0 C47.85 0 95.7 0 145 0 C145 13 145 13 142.98046875 16.140625 C142.05878906 16.83671875 141.13710937 17.5328125 140.1875 18.25 C139.19234375 19.03890625 138.1971875 19.8278125 137.171875 20.640625 C135.60179687 21.80851562 135.60179687 21.80851562 134 23 C131.96234554 24.64687141 129.9529431 26.32579594 127.9375 28 C127.03902344 28.721875 126.14054687 29.44375 125.21484375 30.1875 C122.97246433 31.96126357 122.97246433 31.96126357 121 34 C117.98608002 34.24102088 115.06131029 34.35660628 112.04321289 34.38574219 C110.65013412 34.41027466 110.65013412 34.41027466 109.22891235 34.43530273 C106.14351995 34.48507507 103.05831278 34.51806906 99.97265625 34.546875 C98.9180615 34.55752235 97.86346676 34.56816971 96.7769146 34.57913971 C91.18813864 34.63264697 85.59945244 34.67137113 80.01049805 34.70019531 C74.2531074 34.73339079 68.49802933 34.82284117 62.74150944 34.9249382 C58.30345747 34.9924848 53.8659456 35.01537207 49.42742729 35.02664948 C47.30674128 35.04003327 45.18608823 35.07037154 43.06590462 35.11843109 C24.73017823 35.51012792 24.73017823 35.51012792 18.72862911 30.48945999 C16.65254344 28.45655165 14.820996 26.26131601 13 24 C11.89357905 23.00684091 10.76139141 22.04042797 9.58984375 21.125 C2.22222222 15.22222222 2.22222222 15.22222222 0 13 C0 8.71 0 4.42 0 0 Z " fill="#8965C4" transform="translate(40,116)"/>
<path d="M0 0 C0.89539993 -0.00554901 1.79079987 -0.01109802 2.71333313 -0.01681519 C5.65124291 -0.0285543 8.58759044 -0.00439455 11.52539062 0.02148438 C13.57987396 0.0231971 15.63435948 0.02312815 17.68884277 0.0213623 C21.98597236 0.0230123 26.28257824 0.04165173 30.57958984 0.07324219 C36.07391762 0.1129183 41.56756023 0.11728524 47.06200409 0.10977936 C51.30180074 0.10670252 55.54144482 0.11885563 59.78120422 0.13591003 C61.80649355 0.14291635 63.83180017 0.14606746 65.85710144 0.1452179 C68.69280962 0.14702566 71.52771315 0.168491 74.36328125 0.1953125 C75.19156937 0.1923819 76.01985748 0.18945129 76.87324524 0.18643188 C83.01827967 0.27562513 89.14463794 1.07823169 93.68164062 5.61523438 C94.68164062 7.61523437 94.68164062 7.61523437 94.68164062 10.61523438 C57.39164063 10.61523438 20.10164063 10.61523438 -18.31835938 10.61523438 C-17.31835938 5.61523438 -17.31835938 5.61523438 -15.7983017 4.05483246 C-10.42170029 0.72567884 -6.26966155 -0.10039508 0 0 Z " fill="#FAF9FC" transform="translate(74.318359375,16.384765625)"/>
<path d="M0 0 C0.74362793 0.01047363 1.48725586 0.02094727 2.25341797 0.03173828 C3.34227295 0.03923096 3.34227295 0.03923096 4.453125 0.046875 C5.37464355 0.06508301 6.29616211 0.08329102 7.24560547 0.10205078 C10.17435547 0.14330078 13.10310547 0.18455078 16.12060547 0.22705078 C16.12060547 7.81705078 16.12060547 15.40705078 16.12060547 23.22705078 C7.21060547 23.22705078 -1.69939453 23.22705078 -10.87939453 23.22705078 C-8.62292001 10.81644092 -8.62292001 10.81644092 -6.37939453 6.66455078 C-5.95658203 5.85888672 -5.53376953 5.05322266 -5.09814453 4.22314453 C-2.72028622 0.32863941 -2.72028622 0.32863941 0 0 Z " fill="#FDFDFE" transform="translate(156.87939453125,175.77294921875)"/>
<path d="M0 0 C2.8875 -0.103125 5.775 -0.20625 8.75 -0.3125 C10.10496582 -0.38078003 10.10496582 -0.38078003 11.48730469 -0.45043945 C17.39181428 -0.55271918 17.39181428 -0.55271918 20.44140625 2.21875 C21.84885748 4.73029204 23.12840015 7.13665181 24.1875 9.8125 C24.67283203 10.99779297 24.67283203 10.99779297 25.16796875 12.20703125 C26 15 26 15 27 23 C18.09 23 9.18 23 0 23 C0 15.41 0 7.82 0 0 Z " fill="#FDFDFE" transform="translate(52,176)"/>
<path d="M0 0 C0.33 0 0.66 0 1 0 C1.33 1.98 1.66 3.96 2 6 C3.32 6 4.64 6 6 6 C8.33984375 7.58203125 8.33984375 7.58203125 10.9375 9.8125 C11.89140625 10.62203125 12.8453125 11.4315625 13.828125 12.265625 C14.33666016 12.70455078 14.84519531 13.14347656 15.36914062 13.59570312 C17.10607178 15.09133606 18.85605641 16.57049467 20.609375 18.046875 C23.74681281 20.68948629 26.87533715 23.34229789 30 26 C29.67 27.65 29.34 29.3 29 31 C59.36 31.33 89.72 31.66 121 32 C121 32.33 121 32.66 121 33 C108.54315162 33.23229677 96.08682325 33.40968329 83.62824535 33.51812172 C77.84228383 33.57018348 72.05781028 33.64072818 66.27270508 33.75439453 C60.68342414 33.86351871 55.09556878 33.92293892 49.50530434 33.94877243 C47.37898642 33.96716731 45.2527415 34.00309052 43.12703514 34.05730057 C24.71989251 34.50780276 24.71989251 34.50780276 18.72380543 29.49428368 C16.64804385 27.46043689 14.81872522 25.26365002 13 23 C11.89373748 22.00666444 10.76156513 21.0402056 9.58984375 20.125 C2.22222222 14.22222222 2.22222222 14.22222222 0 12 C-0.1953125 9.1796875 -0.1953125 9.1796875 -0.125 5.875 C-0.10695312 4.77929688 -0.08890625 3.68359375 -0.0703125 2.5546875 C-0.04710937 1.71164063 -0.02390625 0.86859375 0 0 Z " fill="#A185CE" transform="translate(40,117)"/>
<path d="M0 0 C8.25 0 16.5 0 25 0 C25 3.3 25 6.6 25 10 C16.75 10 8.5 10 0 10 C0 6.7 0 3.4 0 0 Z " fill="#FBFAFD" transform="translate(101,135)"/>
<path d="M0 0 C0.99 0.33 1.98 0.66 3 1 C2.43028911 4.34750218 1.51509169 5.80591539 -1.0625 7.98828125 C-1.6905957 8.52694824 -2.31869141 9.06561523 -2.96582031 9.62060547 C-3.63709961 10.17893066 -4.30837891 10.73725586 -5 11.3125 C-5.67901367 11.88629395 -6.35802734 12.46008789 -7.05761719 13.05126953 C-9.03031716 14.71083507 -11.01424583 16.35609849 -13 18 C-13.95390625 18.80566406 -14.9078125 19.61132812 -15.890625 20.44140625 C-20.25220994 24.01588398 -20.25220994 24.01588398 -22 25 C-22.99 24.67 -23.98 24.34 -25 24 C-24.43028911 20.65249782 -23.51509169 19.19408461 -20.9375 17.01171875 C-20.3094043 16.47305176 -19.68130859 15.93438477 -19.03417969 15.37939453 C-18.02726074 14.54190674 -18.02726074 14.54190674 -17 13.6875 C-16.32098633 13.11370605 -15.64197266 12.53991211 -14.94238281 11.94873047 C-12.96968284 10.28916493 -10.98575417 8.64390151 -9 7 C-8.04609375 6.19433594 -7.0921875 5.38867188 -6.109375 4.55859375 C-1.74779006 0.98411602 -1.74779006 0.98411602 0 0 Z " fill="#F8F6FB" transform="translate(180,122)"/>
<path d="M0 0 C4.03805866 1.36266644 6.54368118 3.1409151 9.625 6.0625 C14.17336773 10.30308345 18.92176821 14.16416655 23.84765625 17.95703125 C26.05121838 20.04861563 26.67326276 21.03269244 27 24 C22.2372748 24 21.57396388 23.20260658 18.0625 20.1875 C17.10859375 19.37796875 16.1546875 18.5684375 15.171875 17.734375 C14.66333984 17.29544922 14.15480469 16.85652344 13.63085938 16.40429688 C11.89392822 14.90866394 10.14394359 13.42950533 8.390625 11.953125 C5.25318719 9.31051371 2.12466285 6.65770211 -1 4 C-0.67 2.68 -0.34 1.36 0 0 Z " fill="#F8F6FB" transform="translate(43,122)"/>
<path d="M0 0 C0.99 0.33 1.98 0.66 3 1 C2.62098213 5.53738538 -0.64507661 7.93676377 -3.8125 10.8125 C-4.34681641 11.32748047 -4.88113281 11.84246094 -5.43164062 12.37304688 C-7.01953125 13.83203125 -7.01953125 13.83203125 -10 16 C-12.38671875 15.82421875 -12.38671875 15.82421875 -14 15 C-11.26723853 8.86138311 -5.53335014 3.68890009 0 0 Z " fill="#F9F7FB" transform="translate(58,44)"/>
<path d="M0 0 C3.60686535 1.56017897 6.21200604 3.75765318 9.125 6.375 C9.99382812 7.14585938 10.86265625 7.91671875 11.7578125 8.7109375 C13.78336688 10.77883797 14.92192633 12.34721199 16 15 C14.20214844 15.65795898 14.20214844 15.65795898 12 16 C10.35253906 15.01196289 10.35253906 15.01196289 8.765625 13.47265625 C8.19199219 12.92802734 7.61835938 12.38339844 7.02734375 11.82226562 C6.44082031 11.24154297 5.85429687 10.66082031 5.25 10.0625 C4.64800781 9.48564453 4.04601562 8.90878906 3.42578125 8.31445312 C1.93977143 6.88741195 0.46844834 5.44510595 -1 4 C-0.67 2.68 -0.34 1.36 0 0 Z " fill="#F9F8FC" transform="translate(165,44)"/>
</svg>
